<?xml version="1.0" standalone="no"?>
<!DOCTYPE svg PUBLIC "-//W3C//DTD SVG 20010904//EN"
 "http://www.w3.org/TR/2001/REC-SVG-20010904/DTD/svg10.dtd">
<svg version="1.0" xmlns="http://www.w3.org/2000/svg"
 width="24.000000pt" height="24.000000pt" viewBox="0 0 24.000000 24.000000"
 preserveAspectRatio="xMidYMid meet">

<g transform="translate(0.000000,24.000000) scale(0.100000,-0.100000)"
fill="#000000" stroke="none">
<path d="M20 202 c0 -4 6 -14 13 -21 10 -10 8 -16 -10 -31 -13 -10 -23 -23
-23 -29 0 -18 85 -61 120 -61 18 0 42 -7 52 -17 10 -9 21 -13 25 -9 7 7 -155
176 -169 176 -5 0 -8 -4 -8 -8z m70 -87 c0 -9 10 -20 23 -25 l22 -9 -22 0
c-12 -1 -27 8 -33 18 -13 25 -13 31 0 31 6 0 10 -7 10 -15z"/>
<path d="M96 181 c5 -5 20 -11 34 -13 17 -2 28 -12 35 -33 17 -52 23 -57 51
-39 34 23 30 35 -18 67 -39 25 -126 40 -102 18z"/>
<path d="M120 156 c0 -2 7 -9 15 -16 9 -7 15 -8 15 -2 0 5 -7 12 -15 16 -8 3
-15 4 -15 2z"/>
</g>
</svg>
