<?xml version="1.0" standalone="no"?>
<!DOCTYPE svg PUBLIC "-//W3C//DTD SVG 20010904//EN"
 "http://www.w3.org/TR/2001/REC-SVG-20010904/DTD/svg10.dtd">
<svg version="1.0" xmlns="http://www.w3.org/2000/svg"
 width="24.000000pt" height="24.000000pt" viewBox="0 0 24.000000 24.000000"
 preserveAspectRatio="xMidYMid meet">

<g transform="translate(0.000000,24.000000) scale(0.100000,-0.100000)"
fill="#000000" stroke="none">
<path d="M75 186 c-16 -7 -41 -25 -54 -40 l-25 -26 29 -30 c58 -61 132 -61
190 0 l29 30 -25 26 c-24 27 -77 54 -101 54 -7 -1 -26 -7 -43 -14z m79 -32
c31 -30 9 -84 -34 -84 -40 0 -66 60 -38 88 17 17 54 15 72 -4z"/>
<path d="M96 144 c-9 -8 -16 -19 -16 -24 0 -11 29 -40 40 -40 11 0 40 29 40
40 0 11 -29 40 -40 40 -5 0 -16 -7 -24 -16z"/>
</g>
</svg>
