<?xml version="1.0" standalone="no"?>
<!DOCTYPE svg PUBLIC "-//W3C//DTD SVG 20010904//EN"
 "http://www.w3.org/TR/2001/REC-SVG-20010904/DTD/svg10.dtd">
<svg version="1.0" xmlns="http://www.w3.org/2000/svg"
 width="64.000000pt" height="64.000000pt" viewBox="0 0 64.000000 64.000000"
 preserveAspectRatio="xMidYMid meet">

<g transform="translate(0.000000,64.000000) scale(0.100000,-0.100000)"
fill="#000000" stroke="none">
<path d="M162 620 c-67 -41 -90 -124 -55 -197 22 -47 66 -73 125 -73 147 0
188 219 52 276 -46 19 -83 17 -122 -6z"/>
<path d="M88 335 c-55 -38 -88 -112 -88 -202 l0 -73 45 0 c43 0 45 1 45 29 0
42 18 48 22 9 l3 -33 99 -3 c85 -2 98 -1 92 13 -3 8 -9 22 -12 30 -4 9 1 17
10 21 22 9 20 21 -5 27 -19 5 -21 10 -15 48 8 52 12 59 35 59 14 0 17 6 14 24
-3 16 2 28 17 39 l22 15 -21 11 c-16 9 -28 8 -50 -4 -38 -19 -108 -19 -145 0
-34 18 -25 20 -68 -10z"/>
<path d="M460 331 c0 -28 -18 -36 -39 -17 -22 20 -30 20 -60 -3 -16 -12 -20
-21 -12 -25 22 -14 12 -45 -16 -48 -23 -2 -29 -8 -31 -35 -2 -24 1 -33 17 -38
25 -7 27 -27 6 -45 -14 -12 -13 -19 14 -59 8 -12 12 -12 25 -2 24 20 48 6 40
-24 -4 -17 -2 -25 7 -25 8 0 24 -3 36 -6 18 -5 25 -1 33 20 11 30 22 33 40 11
16 -19 23 -19 51 4 20 16 21 21 10 34 -16 21 -6 37 23 37 18 0 25 7 30 32 4
18 3 34 -2 36 -5 1 -18 9 -28 17 -18 15 -18 15 -1 29 21 16 17 46 -8 66 -12
10 -18 10 -30 0 -19 -16 -35 -5 -35 24 0 16 -7 26 -22 30 -38 10 -48 7 -48
-13z m59 -107 c28 -35 26 -69 -4 -99 -30 -31 -57 -32 -89 -3 -36 33 -39 75 -6
108 29 29 74 26 99 -6z"/>
<path d="M427 212 c-21 -23 -21 -41 -1 -70 18 -26 56 -29 78 -6 19 18 21 65 4
82 -18 18 -63 14 -81 -6z"/>
</g>
</svg>
