<?xml version="1.0" standalone="no"?>
<!DOCTYPE svg PUBLIC "-//W3C//DTD SVG 20010904//EN"
 "http://www.w3.org/TR/2001/REC-SVG-20010904/DTD/svg10.dtd">
<svg version="1.0" xmlns="http://www.w3.org/2000/svg"
 width="64.000000pt" height="64.000000pt" viewBox="0 0 64.000000 64.000000"
 preserveAspectRatio="xMidYMid meet">

<g transform="translate(0.000000,64.000000) scale(0.100000,-0.100000)"
fill="#000000" stroke="none">
<path d="M160 547 c-49 -16 -133 -102 -148 -153 -19 -65 -16 -203 6 -243 26
-48 76 -73 131 -68 35 4 52 14 92 53 65 64 93 64 158 0 40 -39 57 -49 92 -53
55 -5 105 20 131 68 21 40 25 178 6 241 -17 59 -88 133 -145 152 -55 19 -267
21 -323 3z m50 -148 c3 -13 15 -26 25 -28 41 -7 40 -51 -1 -51 -19 0 -24 -5
-24 -26 0 -21 -4 -25 -22 -22 -15 2 -24 11 -26 25 -2 14 -11 23 -25 25 -14 2
-23 11 -25 26 -3 18 1 22 22 22 21 0 26 5 26 24 0 42 41 46 50 5z m318 -51
c-3 -21 -9 -23 -74 -26 -59 -2 -73 0 -78 13 -11 29 3 35 80 35 72 0 75 -1 72
-22z"/>
</g>
</svg>
