<?xml version="1.0" standalone="no"?>
<!DOCTYPE svg PUBLIC "-//W3C//DTD SVG 20010904//EN"
 "http://www.w3.org/TR/2001/REC-SVG-20010904/DTD/svg10.dtd">
<svg version="1.0" xmlns="http://www.w3.org/2000/svg"
 width="200.000000pt" height="200.000000pt" viewBox="0 0 200.000000 200.000000"
 preserveAspectRatio="xMidYMid meet">

<g transform="translate(0.000000,200.000000) scale(0.100000,-0.100000)"
fill="#000000" stroke="none">
<path d="M672 1888 c-7 -7 -12 -16 -12 -21 0 -5 -7 -33 -16 -63 -13 -46 -19
-54 -39 -54 -34 0 -83 -45 -95 -88 -13 -50 -14 -1423 0 -1473 6 -19 22 -46 36
-60 l26 -24 430 0 430 0 28 32 c19 21 31 48 36 79 4 26 15 55 25 65 18 18 19
43 19 484 0 452 -1 466 -20 485 -26 26 -26 74 0 100 17 17 20 33 20 100 0 67
-3 83 -20 100 -11 11 -20 32 -20 48 0 50 -20 101 -51 126 l-31 26 -203 0
c-185 0 -204 2 -209 18 -3 9 -10 37 -16 62 -7 25 -17 51 -22 58 -14 17 -279
17 -296 0z m242 -84 c3 -9 6 -24 6 -35 0 -17 -8 -19 -100 -19 -92 0 -100 2
-100 19 0 47 8 51 100 51 71 0 89 -3 94 -16z m496 -154 c7 -13 9 -170 8 -467
l-3 -448 -22 -3 c-17 -3 -24 3 -29 25 -24 98 -107 200 -204 250 -50 26 -64 28
-160 28 -123 -1 -171 -17 -246 -87 -57 -52 -87 -99 -110 -167 -14 -43 -20 -52
-38 -49 -21 3 -21 3 -24 451 -1 297 1 454 8 467 10 19 24 20 410 20 386 0 400
-1 410 -20z m-304 -707 c66 -22 145 -101 167 -167 22 -63 22 -149 0 -212 -22
-66 -101 -145 -167 -167 -114 -39 -231 -14 -312 67 -115 116 -115 297 1 412
30 30 68 57 95 67 60 21 155 21 216 0z m-473 -338 c15 -106 100 -217 207 -272
50 -25 65 -28 160 -28 95 0 110 3 160 28 106 55 192 168 207 272 5 39 9 45 29
45 l24 0 0 -216 c0 -129 -4 -223 -10 -235 -10 -18 -25 -19 -410 -19 -385 0
-400 1 -410 19 -6 12 -10 106 -10 235 l0 216 24 0 c20 0 24 -6 29 -45z"/>
<path d="M972 1594 c-21 -15 -22 -21 -22 -178 0 -113 4 -166 12 -174 19 -19
66 -15 78 7 6 11 10 87 10 175 0 149 -1 155 -22 170 -12 9 -25 16 -28 16 -3 0
-16 -7 -28 -16z"/>
<path d="M919 896 c-144 -51 -204 -231 -120 -357 94 -140 296 -145 396 -9 71
97 57 228 -34 313 -69 64 -157 84 -242 53z m161 -68 c129 -66 132 -243 5 -315
-116 -66 -265 22 -265 157 0 44 26 104 57 132 55 50 135 60 203 26z"/>
</g>
</svg>
